<?xml version="1.0" encoding="UTF-8"?>
<svg xmlns="http://www.w3.org/2000/svg" viewBox="0 0 500 500">
  <defs>
    <style>
      .cls-1 {
        fill: #191919;
        font-size: 34px;
      }

      .cls-1, .cls-2, .cls-3 {
        font-family: MontserratRoman-Medium, Montserrat;
        font-variation-settings: 'wght' 500;
        font-weight: 500;
      }

      .cls-4 {
        fill: #141414;
      }

      .cls-5 {
        fill: #fff;
      }

      .cls-6 {
        fill: #bcccfd;
      }

      .cls-2 {
        font-size: 18px;
      }

      .cls-7 {
        fill: #f4d74a;
      }

      .cls-3 {
        font-size: 29px;
      }
    </style>
  </defs>
  <g id="BACKGROUND">
    <rect class="cls-7" y="0" width="500" height="499.99"/>
  </g>
  <g id="OBJECTS">
    <text class="cls-1" transform="translate(38.05 310.94)"><tspan x="0" y="0">UNDER CONSTRUCTION</tspan></text>
    <text class="cls-2" transform="translate(68.31 344.34)"><tspan x="0" y="0">We are currently working on this page</tspan></text>
    <g>
      <g>
        <rect x="172.43" y="144.89" width="155.14" height="121.93"/>
        <rect class="cls-5" x="172.43" y="158.7" width="155.14" height="108.11"/>
        <path class="cls-5" d="M180.25,151.53c0,1.25-1.01,2.26-2.26,2.26s-2.26-1.01-2.26-2.26,1.01-2.26,2.26-2.26,2.26,1.01,2.26,2.26Z"/>
        <path class="cls-5" d="M189.88,151.53c0,1.25-1.01,2.26-2.26,2.26s-2.26-1.01-2.26-2.26,1.01-2.26,2.26-2.26,2.26,1.01,2.26,2.26Z"/>
        <path class="cls-5" d="M199.5,151.53c0,1.25-1.01,2.26-2.26,2.26s-2.26-1.01-2.26-2.26,1.01-2.26,2.26-2.26,2.26,1.01,2.26,2.26Z"/>
        <path class="cls-5" d="M274.2,155.6h-63.85c-2.13,0-3.86-1.73-3.86-3.86h0c0-2.13,1.73-3.86,3.86-3.86h63.85c2.13,0,3.86,1.73,3.86,3.86h0c0,2.13-1.73,3.86-3.86,3.86Z"/>
        <path class="cls-5" d="M318.12,155.6h-30.23c-2.13,0-3.86-1.73-3.86-3.86h0c0-2.13,1.73-3.86,3.86-3.86h30.23c2.13,0,3.86,1.73,3.86,3.86h0c0,2.13-1.73,3.86-3.86,3.86Z"/>
      </g>
      <path class="cls-4" d="M328.38,267.63h-156.77v-123.55h156.77v123.55ZM173.24,266h153.51v-120.3h-153.51v120.3Z"/>
    </g>
    <text class="cls-3" transform="translate(181.26 225.34)"><tspan x="0" y="0">WEBSITE</tspan></text>
    <g>
      <rect class="cls-4" x="181.44" y="162.91" width="44.35" height="22.85" transform="translate(390.32 366.68) rotate(-174.72)"/>
      <path class="cls-4" d="M150.01,253.85h9.14c.21,0,.4-.12.48-.32.08-.19.05-.42-.1-.57l-8.79-9.49-.77.72,7.97,8.61h-7.93v1.05Z"/>
      <path class="cls-4" d="M149.54,144.89h10.32v113.22h-10.32v-113.22ZM158.8,145.95h-8.21v111.11h8.21v-111.11Z"/>
      <rect class="cls-5" x="148.12" y="252.56" width="13.14" height="14.42" transform="translate(309.39 519.55) rotate(180)"/>
      <path class="cls-4" d="M150.01,214.86h9.14c.21,0,.4-.12.48-.32.08-.19.05-.42-.1-.57l-8.79-9.49-.77.72,7.97,8.61h-7.93v1.05Z"/>
      <path class="cls-4" d="M150.01,224.61h9.14c.21,0,.4-.12.48-.32.08-.19.05-.42-.1-.57l-8.79-9.49-.77.72,7.97,8.61h-7.93v1.05Z"/>
      <path class="cls-4" d="M150.01,234.36h9.14c.21,0,.4-.12.48-.32.08-.19.05-.42-.1-.57l-8.79-9.49-.77.72,7.97,8.61h-7.93v1.05Z"/>
      <path class="cls-4" d="M150.01,244.1h9.14c.21,0,.4-.12.48-.32.08-.19.05-.42-.1-.57l-8.79-9.49-.77.72,7.97,8.61h-7.93v1.05Z"/>
      <path class="cls-4" d="M150.01,205.35h9.14c.21,0,.4-.12.48-.32.08-.19.05-.42-.1-.57l-8.79-9.49-.77.72,7.97,8.61h-7.93v1.05Z"/>
      <path class="cls-4" d="M150.01,195.84h9.14c.21,0,.4-.12.48-.32.08-.19.05-.42-.1-.57l-8.79-9.49-.77.72,7.97,8.61h-7.93v1.05Z"/>
      <path class="cls-4" d="M150.01,186.33h9.14c.21,0,.4-.12.48-.32.08-.19.05-.42-.1-.57l-8.79-9.49-.77.72,7.97,8.61h-7.93v1.05Z"/>
      <path class="cls-4" d="M150.01,176.82h9.14c.21,0,.4-.12.48-.32.08-.19.05-.42-.1-.57l-8.79-9.49-.77.72,7.97,8.61h-7.93v1.05Z"/>
      <path class="cls-4" d="M150.01,167.31h9.14c.21,0,.4-.12.48-.32.08-.19.05-.42-.1-.57l-8.79-9.49-.77.72,7.97,8.61h-7.93v1.05Z"/>
      <path class="cls-4" d="M150.01,157.79h9.14c.21,0,.4-.12.48-.32.08-.19.05-.42-.1-.57l-8.79-9.49-.77.72,7.97,8.61h-7.93v1.05Z"/>
      <path class="cls-4" d="M150.01,148.28h9.14c.21,0,.4-.12.48-.32.08-.19.05-.42-.1-.57l-8.79-9.49-.77.72,7.97,8.61h-7.93v1.05Z"/>
      <rect class="cls-5" x="149.55" y="134.37" width="16.73" height="14.1" transform="translate(315.84 282.84) rotate(180)"/>
      <rect class="cls-5" x="124.41" y="134.37" width="16.73" height="8.1" transform="translate(265.56 276.84) rotate(180)"/>
      <path class="cls-4" d="M124.69,135.4h82.63c.29,0,.53-.24.53-.53s-.24-.53-.53-.53h-82.63c-.29,0-.53.24-.53.53s.24.53.53.53Z"/>
      <rect class="cls-5" x="202.95" y="137.33" width=".53" height="24.28"/>
      <rect class="cls-4" x="143.64" y="265.3" width="22.11" height="4.14" transform="translate(309.39 534.74) rotate(180)"/>
      <path class="cls-4" d="M157.86,135.26c.07,0,.13-.03.19-.08l4.41-4.41h40.39l4.14,4.14c.1.1.27.1.37,0s.1-.27,0-.37l-4.3-4.3h-40.83l-4.56,4.56c-.1.1-.1.27,0,.37.05.05.12.08.19.08Z"/>
      <path class="cls-4" d="M124.34,135.26c.09,0,.19-.05.23-.14l4.41-8.42h10.69l4.15,8.16c.07.13.23.18.35.12.13-.07.18-.22.12-.35l-4.29-8.44h-11.34l-4.56,8.71c-.07.13-.02.29.11.36.04.02.08.03.12.03Z"/>
      <circle class="cls-5" cx="203.22" cy="137.33" r="1.93"/>
      <path class="cls-4" d="M191.78,130.77c.11,0,.22-.07.25-.19.04-.14-.04-.29-.18-.33l-39.05-11.91c-.06-.02-.12-.01-.18,0l-18.51,7.81c-.13.06-.2.21-.14.35.06.13.21.2.35.14l18.42-7.77,38.96,11.88s.05.01.08.01Z"/>
      <path class="cls-4" d="M158.88,135.3c.06,0,.13-.01.19-.03.27-.1.41-.41.31-.68l-6.15-16.18c-.08-.22-.3-.36-.54-.34-.23.02-.43.19-.47.42l-3.18,15.78c-.06.29.13.56.41.62.28.06.56-.13.62-.41l2.82-13.99,5.5,14.47c.08.21.28.34.49.34Z"/>
      <path class="cls-6" d="M151.67,118.59c0,.59.48,1.06,1.06,1.06s1.06-.48,1.06-1.06-.48-1.06-1.06-1.06-1.06.48-1.06,1.06Z"/>
      <path class="cls-4" d="M197.34,135.31c.06,0,.12-.02.17-.06l5.18-4.19v3.91c0,.15.12.26.26.26s.26-.12.26-.26v-4.47c0-.1-.06-.19-.15-.24-.09-.04-.2-.03-.28.03l-5.61,4.53c-.11.09-.13.26-.04.37.05.06.13.1.21.1Z"/>
      <path class="cls-4" d="M192.34,135.31c.06,0,.12-.02.17-.06l5.18-4.19v3.91c0,.15.12.26.26.26s.26-.12.26-.26v-4.47c0-.1-.06-.19-.15-.24-.09-.04-.2-.03-.28.03l-5.61,4.53c-.11.09-.13.26-.04.37.05.06.13.1.21.1Z"/>
      <path class="cls-4" d="M187.33,135.31c.06,0,.12-.02.17-.06l5.18-4.19v3.91c0,.15.12.26.26.26s.26-.12.26-.26v-4.47c0-.1-.06-.19-.15-.24-.09-.04-.2-.03-.28.03l-5.61,4.53c-.11.09-.13.26-.04.37.05.06.13.1.21.1Z"/>
      <path class="cls-4" d="M182.32,135.31c.06,0,.12-.02.17-.06l5.18-4.19v3.91c0,.15.12.26.26.26s.26-.12.26-.26v-4.47c0-.1-.06-.19-.15-.24-.09-.04-.2-.03-.28.03l-5.61,4.53c-.11.09-.13.26-.04.37.05.06.13.1.21.1Z"/>
      <path class="cls-4" d="M177.31,135.31c.06,0,.12-.02.17-.06l5.18-4.19v3.91c0,.15.12.26.26.26s.26-.12.26-.26v-4.47c0-.1-.06-.19-.15-.24-.09-.04-.2-.03-.28.03l-5.61,4.53c-.11.09-.13.26-.04.37.05.06.13.1.21.1Z"/>
      <path class="cls-4" d="M172.3,135.31c.06,0,.12-.02.17-.06l5.18-4.19v3.91c0,.15.12.26.26.26s.26-.12.26-.26v-4.47c0-.1-.06-.19-.15-.24-.09-.04-.2-.03-.28.03l-5.61,4.53c-.11.09-.13.26-.04.37.05.06.13.1.21.1Z"/>
      <path class="cls-4" d="M167.29,135.31c.06,0,.12-.02.17-.06l5.18-4.19v3.91c0,.15.12.26.26.26s.26-.12.26-.26v-4.47c0-.1-.06-.19-.15-.24-.09-.04-.2-.03-.28.03l-5.61,4.53c-.11.09-.13.26-.04.37.05.06.13.1.21.1Z"/>
      <path class="cls-4" d="M162.29,135.31c.06,0,.12-.02.17-.06l5.18-4.19v3.91c0,.15.12.26.26.26s.26-.12.26-.26v-4.47c0-.1-.06-.19-.15-.24-.09-.04-.2-.03-.28.03l-5.61,4.53c-.11.09-.13.26-.04.37.05.06.13.1.21.1Z"/>
      <path class="cls-4" d="M132.68,135.31c.07,0,.15-.03.2-.09l6.73-7.94v7.7c0,.15.12.26.26.26s.26-.12.26-.26v-8.42c0-.11-.07-.21-.17-.25-.1-.04-.22,0-.29.08l-7.19,8.49c-.09.11-.08.28.03.37.05.04.11.06.17.06Z"/>
      <path class="cls-4" d="M127.51,135.31c.09,0,.17-.04.22-.12l5.13-7.75v7.54c0,.15.12.26.26.26s.26-.12.26-.26v-8.42c0-.12-.08-.22-.19-.25-.11-.03-.23.01-.3.11l-5.61,8.49c-.08.12-.05.28.07.37.04.03.1.04.15.04Z"/>
      <path class="cls-4" d="M201.56,162.32c0,.92.74,1.66,1.66,1.66s1.66-.74,1.66-1.66-.74-1.66-1.66-1.66-1.66.74-1.66,1.66Z"/>
    </g>
    <g>
      <rect class="cls-4" x="279.72" y="170.09" width="42.12" height="21.71" transform="translate(-15.38 28.45) rotate(-5.28)"/>
      <path class="cls-4" d="M351.7,223.52h-8.68c-.2,0-.38-.12-.46-.3-.08-.18-.04-.39.09-.54l8.35-9.02.74.68-7.57,8.18h7.54v1Z"/>
      <path class="cls-4" d="M352.14,227.58h-9.8v-107.54h9.8v107.54ZM343.34,226.58h7.8v-105.53h-7.8v105.53Z"/>
      <rect class="cls-5" x="341" y="222.31" width="12.48" height="13.7"/>
      <path class="cls-4" d="M351.7,186.5h-8.68c-.2,0-.38-.12-.46-.3-.08-.18-.04-.39.09-.54l8.35-9.02.74.68-7.57,8.18h7.54v1Z"/>
      <path class="cls-4" d="M351.7,195.76h-8.68c-.2,0-.38-.12-.46-.3-.08-.18-.04-.39.09-.54l8.35-9.02.74.68-7.57,8.18h7.54v1Z"/>
      <path class="cls-4" d="M351.7,205.01h-8.68c-.2,0-.38-.12-.46-.3-.08-.18-.04-.39.09-.54l8.35-9.02.74.68-7.57,8.18h7.54v1Z"/>
      <path class="cls-4" d="M351.7,214.27h-8.68c-.2,0-.38-.12-.46-.3-.08-.18-.04-.39.09-.54l8.35-9.02.74.68-7.57,8.18h7.54v1Z"/>
      <path class="cls-4" d="M351.7,177.47h-8.68c-.2,0-.38-.12-.46-.3-.08-.18-.04-.39.09-.54l8.35-9.02.74.68-7.57,8.18h7.54v1Z"/>
      <path class="cls-4" d="M351.7,168.43h-8.68c-.2,0-.38-.12-.46-.3-.08-.18-.04-.39.09-.54l8.35-9.02.74.68-7.57,8.18h7.54v1Z"/>
      <path class="cls-4" d="M351.7,159.4h-8.68c-.2,0-.38-.12-.46-.3-.08-.18-.04-.39.09-.54l8.35-9.02.74.68-7.57,8.18h7.54v1Z"/>
      <path class="cls-4" d="M351.7,150.36h-8.68c-.2,0-.38-.12-.46-.3-.08-.18-.04-.39.09-.54l8.35-9.02.74.68-7.57,8.18h7.54v1Z"/>
      <path class="cls-4" d="M351.7,141.33h-8.68c-.2,0-.38-.12-.46-.3-.08-.18-.04-.39.09-.54l8.35-9.02.74.68-7.57,8.18h7.54v1Z"/>
      <path class="cls-4" d="M351.7,132.29h-8.68c-.2,0-.38-.12-.46-.3-.08-.18-.04-.39.09-.54l8.35-9.02.74.68-7.57,8.18h7.54v1Z"/>
      <path class="cls-4" d="M351.7,123.26h-8.68c-.2,0-.38-.12-.46-.3-.08-.18-.04-.39.09-.54l8.35-9.02.74.68-7.57,8.18h7.54v1Z"/>
      <rect class="cls-5" x="336.24" y="110.05" width="15.89" height="13.4"/>
      <rect class="cls-5" x="360.12" y="110.05" width="15.89" height="7.69"/>
      <path class="cls-4" d="M375.74,111.02h-78.48c-.28,0-.5-.22-.5-.5s.22-.5.5-.5h78.48c.28,0,.5.22.5.5s-.22.5-.5.5Z"/>
      <rect class="cls-5" x="300.91" y="112.86" width=".5" height="56"/>
      <rect class="cls-4" x="336.74" y="234.4" width="21" height="3.94"/>
      <path class="cls-4" d="M344.24,110.89c-.06,0-.13-.02-.18-.07l-4.18-4.18h-38.37l-3.93,3.93c-.1.1-.26.1-.35,0-.1-.1-.1-.26,0-.35l4.08-4.08h38.78l4.33,4.33c.1.1.1.26,0,.35-.05.05-.11.07-.18.07Z"/>
      <path class="cls-4" d="M376.08,110.89c-.09,0-.18-.05-.22-.13l-4.19-8h-10.16l-3.94,7.75c-.06.12-.21.17-.34.11-.12-.06-.17-.21-.11-.34l4.08-8.02h10.77l4.33,8.27c.06.12.02.27-.11.34-.04.02-.08.03-.12.03Z"/>
      <path class="cls-5" d="M302.99,112.86c0,1.01-.82,1.84-1.84,1.84s-1.84-.82-1.84-1.84.82-1.84,1.84-1.84,1.84.82,1.84,1.84Z"/>
      <path class="cls-4" d="M312.02,106.63c-.11,0-.21-.07-.24-.18-.04-.13.03-.27.17-.31l37.09-11.31c.06-.02.12-.01.17,0l17.58,7.42c.13.05.19.2.13.33-.05.13-.2.19-.33.13l-17.49-7.38-37,11.28s-.05.01-.07.01Z"/>
      <path class="cls-4" d="M343.27,110.93c-.06,0-.12-.01-.18-.03-.26-.1-.39-.39-.29-.65l5.84-15.37c.08-.21.28-.34.51-.32.22.02.41.18.45.4l3.02,14.99c.05.27-.12.54-.39.59-.27.05-.54-.12-.59-.39l-2.68-13.28-5.22,13.74c-.08.2-.27.32-.47.32Z"/>
      <path class="cls-6" d="M350.12,95.06c0,.56-.45,1.01-1.01,1.01s-1.01-.45-1.01-1.01.45-1.01,1.01-1.01,1.01.45,1.01,1.01Z"/>
      <path class="cls-4" d="M306.74,110.94c-.06,0-.11-.02-.16-.06l-4.92-3.98v3.72c0,.14-.11.25-.25.25s-.25-.11-.25-.25v-4.24c0-.1.06-.18.14-.23.09-.04.19-.03.27.03l5.33,4.31c.11.09.12.24.04.35-.05.06-.12.09-.19.09Z"/>
      <path class="cls-4" d="M311.49,110.94c-.06,0-.11-.02-.16-.06l-4.92-3.98v3.72c0,.14-.11.25-.25.25s-.25-.11-.25-.25v-4.24c0-.1.06-.18.14-.23.09-.04.19-.03.27.03l5.33,4.31c.11.09.12.24.04.35-.05.06-.12.09-.19.09Z"/>
      <path class="cls-4" d="M316.25,110.94c-.06,0-.11-.02-.16-.06l-4.92-3.98v3.72c0,.14-.11.25-.25.25s-.25-.11-.25-.25v-4.24c0-.1.06-.18.14-.23.09-.04.19-.03.27.03l5.33,4.31c.11.09.12.24.04.35-.05.06-.12.09-.19.09Z"/>
      <path class="cls-4" d="M321.01,110.94c-.06,0-.11-.02-.16-.06l-4.92-3.98v3.72c0,.14-.11.25-.25.25s-.25-.11-.25-.25v-4.24c0-.1.06-.18.14-.23.09-.04.19-.03.27.03l5.33,4.31c.11.09.12.24.04.35-.05.06-.12.09-.19.09Z"/>
      <path class="cls-4" d="M325.76,110.94c-.06,0-.11-.02-.16-.06l-4.92-3.98v3.72c0,.14-.11.25-.25.25s-.25-.11-.25-.25v-4.24c0-.1.06-.18.14-.23.09-.04.19-.03.27.03l5.33,4.31c.11.09.12.24.04.35-.05.06-.12.09-.19.09Z"/>
      <path class="cls-4" d="M330.52,110.94c-.06,0-.11-.02-.16-.06l-4.92-3.98v3.72c0,.14-.11.25-.25.25s-.25-.11-.25-.25v-4.24c0-.1.06-.18.14-.23.09-.04.19-.03.27.03l5.33,4.31c.11.09.12.24.04.35-.05.06-.12.09-.19.09Z"/>
      <path class="cls-4" d="M335.28,110.94c-.06,0-.11-.02-.16-.06l-4.92-3.98v3.72c0,.14-.11.25-.25.25s-.25-.11-.25-.25v-4.24c0-.1.06-.18.14-.23.09-.04.19-.03.27.03l5.33,4.31c.11.09.12.24.04.35-.05.06-.12.09-.2.09Z"/>
      <path class="cls-4" d="M340.03,110.94c-.06,0-.11-.02-.16-.06l-4.92-3.98v3.72c0,.14-.11.25-.25.25s-.25-.11-.25-.25v-4.24c0-.1.06-.18.14-.23.09-.04.19-.03.27.03l5.33,4.31c.11.09.12.24.04.35-.05.06-.12.09-.19.09Z"/>
      <path class="cls-4" d="M368.15,110.94c-.07,0-.14-.03-.19-.09l-6.39-7.54v7.31c0,.14-.11.25-.25.25s-.25-.11-.25-.25v-8c0-.11.07-.2.16-.23.1-.04.21,0,.28.07l6.83,8.06c.09.11.08.26-.03.35-.05.04-.1.06-.16.06Z"/>
      <path class="cls-4" d="M373.07,110.94c-.08,0-.16-.04-.21-.11l-4.87-7.37v7.16c0,.14-.11.25-.25.25s-.25-.11-.25-.25v-8c0-.11.07-.21.18-.24.11-.03.22,0,.28.1l5.33,8.06c.08.12.04.27-.07.35-.04.03-.09.04-.14.04Z"/>
      <path class="cls-4" d="M302.73,169.53c0,.87-.71,1.58-1.58,1.58s-1.58-.71-1.58-1.58.71-1.58,1.58-1.58,1.58.71,1.58,1.58Z"/>
    </g>
    <g>
      <g>
        <polygon points="367.55 220.25 366.16 261.72 369.77 261.72 372 220.25 367.55 220.25"/>
        <polygon points="363.23 245.64 365.6 245.64 365.18 268.34 343.89 267.26 344.03 265.91 362.62 266.72 363.23 245.64"/>
        <path d="M394.47,223.76h12.73v31.48h-31.31v-2.28c0-8.78,2.96-17.31,8.42-24.3h0c2.41-3.08,6.17-4.89,10.15-4.89Z"/>
        <path d="M402.47,243.48h4.38c4.19,0,7.59,3.3,7.59,7.37v12.09h-12.11v3.78h-25v-9.46h-6.16v-.45c0-2.66,2.22-4.82,4.97-4.82h26.34v-8.51Z"/>
        <ellipse cx="374.64" cy="262.93" rx="9.04" ry="8.78"/>
        <path class="cls-7" d="M379.25,262.93c0,2.47-2.06,4.47-4.61,4.47s-4.61-2-4.61-4.47,2.06-4.47,4.61-4.47,4.61,2,4.61,4.47Z"/>
        <ellipse cx="408.59" cy="262.93" rx="9.04" ry="8.78"/>
        <path class="cls-7" d="M413.2,262.93c0,2.47-2.06,4.47-4.61,4.47s-4.61-2-4.61-4.47,2.06-4.47,4.61-4.47,4.61,2,4.61,4.47Z"/>
        <path class="cls-5" d="M380.49,243.88h11.97v-16.34s-7.65-1.76-11.97,16.34Z"/>
        <rect x="363.98" y="254.02" width="3.09" height="1.24"/>
        <rect x="365.62" y="222.79" width="8.91" height="1.24"/>
        <rect class="cls-7" x="395.97" y="227.38" width="8.72" height="1.59"/>
        <rect class="cls-5" x="396.31" y="230.84" width="7.88" height="13.04"/>
      </g>
      <g>
        <path d="M143.82,239.27l-15.68-29.63c-.6-1.35-1.96-2.3-3.54-2.3-1.32,0-2.49.66-3.19,1.68,0,0,0,0,0,0l-15.01,20c-.21-.03-.42-.04-.63-.04h-6.75c-2.68,0-4.86,2.18-4.86,4.86v5.96h-5.96c-1.59,0-2.89,1.3-2.89,2.89v6.89c0,1.59,1.3,2.89,2.89,2.89h7.93v2.09h-6.95c-3.76,0-6.82,3.06-6.82,6.82s3.06,6.82,6.82,6.82h23.61c3.76,0,6.82-3.06,6.82-6.82s-3.06-6.82-6.82-6.82h-6.95v-2.09h7.93c.51,0,.92-.41.92-.92v-3.01h1.05s.02,0,.04,0c.02,0,.04,0,.06,0,0,0,.02,0,.03,0,.02,0,.04,0,.06,0,.02,0,.03,0,.05-.01.01,0,.03,0,.04-.01,0,0,.02,0,.03-.01.02,0,.04-.01.06-.02,0,0,0,0,0,0,.05-.02.1-.05.15-.08.01,0,.02-.02.03-.03.01,0,.02-.02.04-.03.01-.01.02-.02.04-.03,0,0,.02-.02.03-.03,0,0,.02-.02.02-.03.01-.01.02-.03.03-.04,0,0,0-.01.01-.01.01-.02.03-.04.04-.06,0,0,.01-.02.02-.03.01-.02.02-.03.03-.05.05-.09.09-.2.1-.31,0-.04,0-.08,0-.13v-3.52c0-1.74-.51-3.43-1.48-4.88l-1.46-2.19,10.13-17.01,14.96,22.16c.35.6.91,1.06,1.57,1.29v1.52l-.27-.67c-.09-.23-.27-.41-.49-.5-.23-.1-.48-.1-.71,0l-12.6,5.06-2.17-1.79c-.39-.32-.97-.27-1.3.12-.32.39-.27.97.12,1.3l6.81,5.61c1.24,1.02,2.78,1.56,4.34,1.56.86,0,1.72-.16,2.54-.49l3.14-1.26c1.35-.54,2.23-1.77,2.4-3.12.02-.07.03-.15.03-.23v-7.1c1.14-.39,1.97-1.47,1.97-2.74,0-.53-.14-1.02-.39-1.45h0ZM141.32,241.77"/>
        <path class="cls-5" d="M86.3,261.38c0,1.59,1.3,2.89,2.89,2.89s2.89-1.3,2.89-2.89c0-1.03-.55-1.99-1.44-2.5-.44-.25-.94-.39-1.45-.39-1.59,0-2.89,1.3-2.89,2.89h0ZM90.23,261.38"/>
        <path class="cls-5" d="M97.06,264.27c1.59,0,2.89-1.3,2.89-2.89,0-1.03-.55-1.99-1.44-2.5-.44-.25-.94-.39-1.45-.39-1.59,0-2.89,1.3-2.89,2.89s1.3,2.89,2.89,2.89h0ZM97.06,260.33"/>
        <path class="cls-5" d="M104.92,264.27c1.59,0,2.89-1.3,2.89-2.89,0-1.03-.55-1.99-1.44-2.5-.44-.25-.94-.39-1.45-.39-1.59,0-2.89,1.3-2.89,2.89s1.3,2.89,2.89,2.89h0ZM104.92,260.33"/>
        <path class="cls-5" d="M112.79,264.27c1.59,0,2.89-1.3,2.89-2.89,0-1.03-.55-1.99-1.44-2.5-.44-.25-.94-.39-1.45-.39-1.59,0-2.89,1.3-2.89,2.89s1.3,2.89,2.89,2.89h0ZM112.79,260.33"/>
        <path class="cls-7" d="M90.17,245.58h.98c.51,0,.92-.41.92-.92s-.41-.92-.92-.92h-.98c-.51,0-.92.41-.92.92s.41.92.92.92h0ZM90.17,245.58"/>
        <path class="cls-7" d="M90.17,248.53h.98c.51,0,.92-.41.92-.92s-.41-.92-.92-.92h-.98c-.51,0-.92.41-.92.92s.41.92.92.92h0ZM90.17,248.53"/>
        <polygon class="cls-5" points="100.82 232.29 100.82 244.83 113.61 244.83 113.61 241.66 106.9 232.16 100.82 232.29"/>
      </g>
    </g>
  </g>
</svg>